<svg xmlns="http://www.w3.org/2000/svg" xmlns:xlink="http://www.w3.org/1999/xlink" version="1.1" x="0px" y="0px" viewBox="0 0 34 42.5" enable-background="new 0 0 34 34" xml:space="preserve"><g><rect x="17" y="21" width="5" height="2"/><rect x="17" y="25" width="5" height="2"/><rect x="17" y="17" width="5" height="2"/><path d="M17,1C8.2,1,1,3.7,1,7v20c0,3.3,7.2,6,16,6s16-2.7,16-6V7C33,3.7,25.8,1,17,1z M24,30c0,0.6-0.4,1-1,1h0c-0.6,0-1-0.4-1-1   v-1h-5v1c0,0.6-0.4,1-1,1h0c-0.6,0-1-0.4-1-1V14c0-0.6,0.4-1,1-1h0c0.6,0,1,0.4,1,1v1h5v-1c0-0.6,0.4-1,1-1h0c0.6,0,1,0.4,1,1V30z    M17,11C7.9,11,3,8.2,3,7s4.9-4,14-4s14,2.8,14,4S26.1,11,17,11z"/></g><text x="0" y="49" fill="#000000" font-size="5px" font-weight="bold" font-family="'Helvetica Neue', Helvetica, Arial-Unicode, Arial, Sans-serif">Created by Vectors Market</text><text x="0" y="54" fill="#000000" font-size="5px" font-weight="bold" font-family="'Helvetica Neue', Helvetica, Arial-Unicode, Arial, Sans-serif">from the Noun Project</text></svg>