<svg version="1.1" id="Layer_1" xmlns="http://www.w3.org/2000/svg" xmlns:xlink="http://www.w3.org/1999/xlink" x="0px" y="0px"
	 width="100%" viewBox="0 0 512 512" enable-background="new 0 0 512 512" xml:space="preserve">
<path fill="#000000" opacity="1.000000" stroke="none" 
	d="
M513.000000,196.000000 
	C513.000000,301.974243 513.000000,407.448486 513.000000,512.961365 
	C342.400757,512.961365 171.801483,512.961365 1.101111,512.961365 
	C1.101111,342.442444 1.101111,171.884827 1.101111,1.163595 
	C171.666534,1.163595 342.333252,1.163595 513.000000,1.163595 
	C513.000000,65.865143 513.000000,130.682571 513.000000,196.000000 
M257.982056,185.257874 
	C260.067200,175.005020 259.413513,165.549530 252.522476,156.728195 
	C244.449738,146.394165 233.754288,140.342926 221.923538,135.981827 
	C202.810852,128.936417 183.036957,127.544342 162.887024,129.968384 
	C148.539673,131.694366 134.892593,135.313339 122.367752,142.860077 
	C103.782951,154.058182 95.624542,169.184830 101.989525,188.924164 
	C101.385284,193.280624 100.781044,197.637085 100.000626,202.916962 
	C99.995728,211.250061 99.996193,219.583145 99.984993,227.916245 
	C99.938385,262.578308 99.888268,297.240387 99.231316,332.213104 
	C89.825340,337.807983 80.429932,343.420746 71.010773,348.993378 
	C58.646824,356.308228 46.264168,363.591461 33.277298,371.484467 
	C33.185020,375.797211 33.402908,380.145447 32.914074,384.412781 
	C32.415501,388.765137 34.437904,391.015503 37.908752,392.993286 
	C58.116901,404.508728 78.272339,416.117126 98.410461,427.754852 
	C116.832062,438.400604 135.168213,449.194794 153.621460,459.785095 
	C164.345459,465.939575 175.225891,471.821442 186.753128,477.892303 
	C205.077179,467.516235 223.482681,457.280884 241.705750,446.730408 
	C267.623627,431.724884 293.367371,416.418762 319.260406,401.369934 
	C342.622833,387.791931 366.130127,374.463226 389.492737,360.885529 
	C415.261383,345.909515 440.958344,330.809601 466.636963,315.679535 
	C471.522675,312.800903 478.131561,310.542633 480.400848,306.161987 
	C482.770386,301.587769 480.859161,294.795990 480.595886,288.344238 
	C463.108887,278.202484 445.621887,268.060760 428.025970,257.117737 
	C425.731415,252.057587 423.436829,246.997452 421.025787,241.014465 
	C421.018677,224.075653 421.029633,207.136795 421.000244,190.198013 
	C420.956177,164.794647 420.883789,139.391296 420.967896,113.068695 
	C420.898438,106.267044 421.954834,99.294052 418.077911,92.279495 
	C420.077576,84.617523 419.978455,77.197563 416.443481,69.847145 
	C411.212982,58.971085 402.216736,52.047783 391.855469,47.099819 
	C365.012939,34.281315 336.878571,32.901756 308.226105,39.487633 
	C293.574280,42.855408 280.182373,48.932087 269.496124,60.007076 
	C259.877594,69.975548 257.313293,83.467934 262.249237,95.249565 
	C261.557526,99.163818 260.865814,103.078072 259.996704,107.915695 
	C259.984772,135.240128 259.972839,162.564545 259.289337,189.787720 
	C258.827454,188.565399 258.365570,187.343079 257.982056,185.257874 
z"/>
<path fill="#80505A" opacity="1.000000" stroke="none" 
	d="
M33.889572,370.888306 
	C46.264168,363.591461 58.646824,356.308228 71.010773,348.993378 
	C80.429932,343.420746 89.825340,337.807983 99.575775,332.428833 
	C99.920227,333.639313 99.920227,334.634033 99.620010,335.823730 
	C93.895607,343.110321 92.226379,351.222046 92.636246,360.299194 
	C91.245895,374.033173 95.982285,385.088989 106.011497,393.765778 
	C124.636269,409.878967 146.919067,416.028717 171.429108,417.098450 
	C188.283112,418.258453 204.433182,416.653931 220.238724,412.000397 
	C231.830444,408.587494 242.579803,403.520050 252.141220,395.964539 
	C269.094238,382.568085 270.611847,363.629639 265.755981,344.838043 
	C264.911255,341.569153 262.006897,338.832489 260.017029,335.434540 
	C259.650177,333.111694 259.001099,331.197418 259.042389,329.298096 
	C259.290192,317.903656 259.696655,306.512695 260.374298,295.182220 
	C279.782227,315.477692 304.258362,322.497833 331.473175,324.021515 
	C334.259399,324.183105 336.583466,324.315460 338.908356,324.332458 
	C362.917419,324.507507 385.893616,320.376678 406.419464,307.128418 
	C420.552979,298.006042 429.485992,285.777374 427.955292,267.869690 
	C427.674255,264.581970 428.058014,261.237366 428.134888,257.919037 
	C445.621887,268.060760 463.108887,278.202484 480.371460,288.716797 
	C452.736542,305.067291 425.354553,321.094421 397.908508,337.011108 
	C361.544312,358.099670 325.093933,379.039764 288.748199,400.160065 
	C257.433807,418.356689 226.227661,436.739532 194.929611,454.964417 
	C192.112335,456.604919 188.972275,457.691132 185.632538,458.980408 
	C165.264038,447.459839 145.224472,436.029449 125.231361,424.518402 
	C99.767876,409.857788 74.321472,395.167175 48.917175,380.404358 
	C43.794552,377.427521 38.893024,374.070221 33.889572,370.888306 
z"/>
<path fill="#DFE9FB" opacity="1.000000" stroke="none" 
	d="
M428.080444,257.518372 
	C428.058014,261.237366 427.674255,264.581970 427.955292,267.869690 
	C429.485992,285.777374 420.552979,298.006042 406.419464,307.128418 
	C385.893616,320.376678 362.917419,324.507507 338.908356,324.332458 
	C336.583466,324.315460 334.259399,324.183105 331.471069,323.567047 
	C331.755737,319.395264 328.922455,314.841583 333.512573,312.394440 
	C305.991669,310.747955 280.303009,303.943787 260.049957,282.685303 
	C260.049957,287.153503 260.049957,291.137024 260.049957,295.120544 
	C259.696655,306.512695 259.290192,317.903656 259.042389,329.298096 
	C259.001099,331.197418 259.650177,333.111694 260.001068,335.912659 
	C260.014191,340.966766 260.028931,345.127441 259.994690,349.287750 
	C259.878754,363.373199 251.795334,372.634338 241.078796,380.214600 
	C240.110931,380.899231 238.561447,380.761566 237.204895,380.542389 
	C237.115723,330.383698 237.103714,280.688416 237.439148,230.951324 
	C238.967407,230.317886 240.259109,229.878204 241.311447,229.110428 
	C249.594894,223.066864 256.602142,215.966522 260.291077,206.254654 
	C260.372284,209.135025 260.051941,211.744461 260.041718,214.355133 
	C259.988159,228.008682 259.727753,241.671661 260.164307,255.311356 
	C260.319153,260.149567 261.434692,265.311096 263.497375,269.669128 
	C270.216736,283.865845 282.864044,290.990112 297.246948,296.283020 
	C306.171661,298.587097 314.763580,301.126587 323.537720,302.510773 
	C330.672363,303.636383 338.065430,304.019653 345.271637,303.571045 
	C354.457916,302.999207 363.571381,301.258392 372.795471,300.439697 
	C373.108337,302.579926 373.341949,304.301880 373.575592,306.023834 
	C374.147980,306.028412 374.720367,306.032990 375.292755,306.037567 
	C375.580078,303.694000 375.867371,301.350433 376.506439,298.954559 
	C382.555389,296.602142 388.252625,294.302032 394.117615,292.301208 
	C399.381744,294.974152 396.167847,289.993408 397.787354,288.940247 
	C403.407471,284.245270 409.184814,280.049530 413.877960,274.871185 
	C419.082184,269.128876 419.923248,261.564392 420.050812,253.975937 
	C420.118347,249.958084 420.759857,245.949875 421.142273,241.937302 
	C423.436829,246.997452 425.731415,252.057587 428.080444,257.518372 
z"/>
<path fill="#BBCFEF" opacity="1.000000" stroke="none" 
	d="
M99.920219,335.628754 
	C99.920227,334.634033 99.920227,333.639313 99.879837,332.273529 
	C99.888268,297.240387 99.938385,262.578308 99.984993,227.916245 
	C99.996193,219.583145 99.995728,211.250061 100.313217,202.715454 
	C101.445068,204.337189 102.264328,206.160461 103.055191,207.904510 
	C103.026802,207.825302 103.181038,207.757996 103.109909,208.154099 
	C103.631088,210.237442 103.979454,212.065186 104.856728,213.588287 
	C109.345772,221.382080 116.000893,226.966675 123.714569,231.333191 
	C128.422195,233.998062 133.279938,236.397705 138.045013,239.393951 
	C138.012970,287.532074 138.018951,335.192780 137.956192,382.853363 
	C137.953476,384.919617 137.318558,386.985016 136.602448,389.029724 
	C132.018570,387.100830 127.584023,385.571075 123.645401,383.212982 
	C112.605690,376.603363 102.817482,368.589050 100.626175,354.949585 
	C99.611595,348.634521 100.108536,342.076569 99.920219,335.628754 
z"/>
<path fill="#BBCFEF" opacity="1.000000" stroke="none" 
	d="
M296.992920,296.019043 
	C282.864044,290.990112 270.216736,283.865845 263.497375,269.669128 
	C261.434692,265.311096 260.319153,260.149567 260.164307,255.311356 
	C259.727753,241.671661 259.988159,228.008682 260.041718,214.355133 
	C260.051941,211.744461 260.372284,209.135025 260.293457,205.834900 
	C260.011841,200.059525 259.986389,194.974243 259.960938,189.888977 
	C259.972839,162.564545 259.984772,135.240128 260.311951,107.731842 
	C261.467804,109.697151 262.308411,111.846321 263.101288,113.997116 
	C263.053589,113.998741 263.060333,113.903519 263.041382,114.299454 
	C264.364441,122.179428 268.920044,127.761360 274.848297,131.749680 
	C282.206757,136.700195 290.241272,140.645828 297.989655,145.491638 
	C297.997009,194.080246 298.009979,242.202728 297.957428,290.325134 
	C297.955383,292.223450 297.328613,294.121094 296.992920,296.019043 
z"/>
<path fill="#70444D" opacity="1.000000" stroke="none" 
	d="
M185.982117,459.034790 
	C188.972275,457.691132 192.112335,456.604919 194.929611,454.964417 
	C226.227661,436.739532 257.433807,418.356689 288.748199,400.160065 
	C325.093933,379.039764 361.544312,358.099670 397.908508,337.011108 
	C425.354553,321.094421 452.736542,305.067291 480.483154,289.031494 
	C480.859161,294.795990 482.770386,301.587769 480.400848,306.161987 
	C478.131561,310.542633 471.522675,312.800903 466.636963,315.679535 
	C440.958344,330.809601 415.261383,345.909515 389.492737,360.885529 
	C366.130127,374.463226 342.622833,387.791931 319.260406,401.369934 
	C293.367371,416.418762 267.623627,431.724884 241.705750,446.730408 
	C223.482681,457.280884 205.077179,467.516235 186.384903,477.413971 
	C186.014130,474.802460 186.013077,472.669312 186.008713,470.536133 
	C186.000885,466.702362 185.991089,462.868561 185.982117,459.034790 
z"/>
<path fill="#D9E4F8" opacity="1.000000" stroke="none" 
	d="
M421.084015,241.475891 
	C420.759857,245.949875 420.118347,249.958084 420.050812,253.975937 
	C419.923248,261.564392 419.082184,269.128876 413.877960,274.871185 
	C409.184814,280.049530 403.407471,284.245270 397.690979,288.480225 
	C397.266388,238.049911 397.259064,188.013763 397.588623,137.928360 
	C403.096710,133.672333 408.618042,129.816864 413.315643,125.134850 
	C416.428894,122.031921 418.362030,117.744888 420.823456,113.987946 
	C420.883789,139.391296 420.956177,164.794647 421.000244,190.198013 
	C421.029633,207.136795 421.018677,224.075653 421.084015,241.475891 
z"/>
<path fill="#613941" opacity="1.000000" stroke="none" 
	d="
M185.632538,458.980408 
	C185.991089,462.868561 186.000885,466.702362 186.008713,470.536133 
	C186.013077,472.669312 186.014130,474.802460 186.026306,477.380798 
	C175.225891,471.821442 164.345459,465.939575 153.621460,459.785095 
	C135.168213,449.194794 116.832062,438.400604 98.410461,427.754852 
	C78.272339,416.117126 58.116901,404.508728 37.908752,392.993286 
	C34.437904,391.015503 32.415501,388.765137 32.914074,384.412781 
	C33.402908,380.145447 33.185020,375.797211 33.583435,371.186401 
	C38.893024,374.070221 43.794552,377.427521 48.917175,380.404358 
	C74.321472,395.167175 99.767876,409.857788 125.231361,424.518402 
	C145.224472,436.029449 165.264038,447.459839 185.632538,458.980408 
z"/>
<path fill="#545C64" opacity="1.000000" stroke="none" 
	d="
M263.001862,94.969963 
	C257.313293,83.467934 259.877594,69.975548 269.496124,60.007076 
	C280.182373,48.932087 293.574280,42.855408 308.226105,39.487633 
	C336.878571,32.901756 365.012939,34.281315 391.855469,47.099819 
	C402.216736,52.047783 411.212982,58.971085 416.443481,69.847145 
	C419.978455,77.197563 420.077576,84.617523 417.630066,92.812828 
	C416.780334,97.646713 416.327972,101.943413 415.999481,106.249565 
	C415.851959,108.183060 415.938629,110.119919 413.113281,108.384972 
	C413.159424,105.975662 413.159424,103.966270 413.159424,101.711769 
	C408.845612,105.512245 405.048798,108.688713 401.480255,112.103691 
	C400.406403,113.131302 399.399384,114.800018 399.343933,116.213585 
	C399.175751,120.499596 399.488525,124.804489 399.495361,129.491089 
	C398.577362,130.919052 397.777924,131.957947 396.929626,132.530701 
	C396.845245,126.606636 396.950745,121.142693 396.717743,115.693230 
	C396.591766,112.746948 397.645416,110.979851 399.947876,109.091667 
	C403.599854,106.096779 406.686981,102.413109 410.269867,98.851456 
	C411.025970,97.799385 411.525330,96.916695 412.284851,95.787979 
	C413.361755,92.711914 414.178467,89.881866 415.005310,86.590263 
	C416.571472,73.291725 409.818359,64.833549 400.092743,57.223228 
	C400.092743,63.552902 400.092743,69.192604 399.796478,75.091820 
	C399.171844,76.599243 398.843475,77.847160 398.515106,79.095070 
	C398.142944,79.051834 397.770782,79.008591 397.398621,78.965355 
	C396.932098,76.642090 396.465546,74.318832 396.007629,71.527916 
	C396.017670,66.581703 396.106354,62.100456 395.968658,57.626175 
	C395.926056,56.242889 395.696228,54.139984 394.818176,53.629818 
	C390.344604,51.030716 385.630402,48.845814 380.004547,46.014793 
	C380.004547,53.232487 380.004547,59.140823 379.999847,65.433624 
	C379.582581,67.459053 379.170044,69.100014 378.581604,70.595848 
	C378.017181,70.223801 377.628693,69.996887 377.217072,69.361877 
	C377.127350,67.320473 377.060760,65.687149 377.004303,63.582130 
	C377.016479,58.311325 377.083710,53.510735 376.974304,48.714172 
	C376.947205,47.527340 376.608734,45.507195 375.968201,45.309017 
	C371.258850,43.851944 366.436432,42.760323 360.996704,41.388969 
	C360.996704,48.749538 360.996704,54.844429 360.869751,61.291801 
	C360.482483,63.092796 360.222107,64.541313 359.703430,66.007942 
	C359.278839,66.072495 359.112579,66.118927 358.628418,65.938576 
	C357.855896,63.774319 357.401245,61.836853 356.973022,59.437946 
	C357.005096,54.503883 356.706085,50.003498 357.110443,45.567215 
	C357.449310,41.849140 355.693054,40.331814 352.564087,40.108688 
	C348.845520,39.843521 345.093597,40.046295 341.003662,40.046295 
	C341.003662,46.831207 341.003662,52.934303 340.985443,59.472343 
	C340.694824,61.478645 340.422394,63.050003 340.149963,64.621361 
	C339.660065,64.601387 339.170197,64.581413 338.680298,64.561440 
	C338.452637,62.717911 338.224976,60.874378 338.006592,58.560520 
	C338.015839,52.178852 338.015839,46.267513 338.015839,40.001793 
	C333.823120,40.001793 330.350983,39.827019 326.904938,40.052265 
	C323.634399,40.266037 321.513641,41.520779 321.880676,45.611973 
	C322.309387,50.390209 321.995880,55.235027 321.937683,60.429741 
	C320.925079,62.508881 319.979156,64.209244 318.988770,65.529785 
	C318.610016,63.734138 318.275757,62.318295 317.971375,60.441071 
	C318.001221,54.074532 318.001221,48.169376 318.001221,41.531246 
	C313.684265,42.475494 310.220276,43.324646 306.718628,43.969566 
	C304.016327,44.467270 302.793762,45.728424 302.913635,48.646763 
	C303.124451,53.778542 302.992767,58.924385 302.867920,64.435150 
	C302.243134,66.686035 301.754913,68.566109 301.266693,70.446182 
	C300.832794,70.440285 300.398926,70.434387 299.965027,70.428490 
	C299.644135,68.941849 299.323212,67.455200 299.009827,65.502228 
	C299.017334,59.155567 299.017334,53.275246 299.017334,46.496769 
	C295.090088,48.249023 292.021912,49.682434 288.902588,50.994167 
	C284.578369,52.812592 282.231049,55.542076 282.876953,60.681541 
	C283.387909,64.747307 282.996094,68.926529 282.972412,73.463951 
	C282.649689,75.614906 282.359711,77.357269 281.842834,80.462700 
	C280.288513,78.002327 279.588989,76.895088 278.911835,75.333603 
	C278.934174,69.353500 278.934174,63.827648 278.934174,57.886230 
	C267.847656,64.492134 261.986786,78.145996 265.010590,89.423927 
	C266.054321,92.192116 267.093567,94.591858 268.198975,97.301315 
	C269.106781,98.573593 269.948395,99.536163 270.914337,100.795715 
	C281.980591,113.563515 296.521027,119.367599 312.140076,122.960564 
	C326.025055,126.154633 340.092590,126.934723 354.281311,125.215179 
	C360.601532,124.449226 360.604706,124.573349 360.664459,131.038864 
	C360.704376,135.357773 360.841064,139.675797 360.801697,144.317261 
	C359.694244,144.776520 358.719543,144.912720 357.810059,144.581909 
	C357.875275,138.849274 357.875275,133.583649 357.875275,128.248672 
	C352.024078,128.657028 346.778259,129.023132 341.265747,129.407837 
	C341.265747,135.163177 341.265747,140.608200 341.155762,146.347137 
	C340.067902,146.416901 339.090057,146.192780 338.199738,145.509308 
	C338.287262,139.932144 338.287262,134.814346 338.287262,129.401581 
	C332.441284,128.998886 327.095551,128.630646 321.619049,128.253403 
	C321.619049,134.184830 321.619049,139.647903 321.355530,145.397720 
	C320.274506,145.145218 319.456940,144.605972 318.727539,143.602692 
	C318.832306,139.000778 319.030792,134.850754 318.755524,130.732361 
	C318.672211,129.485931 317.497864,127.565086 316.444794,127.260147 
	C311.881134,125.938583 307.177368,125.100609 302.194611,124.014900 
	C302.194611,129.529053 302.194611,134.785233 302.092560,140.380188 
	C298.102661,143.030518 299.877838,139.031128 299.080566,137.555481 
	C299.202759,133.274582 299.325714,129.448502 299.175751,125.633171 
	C299.130219,124.474655 298.643921,122.712242 297.825348,122.307922 
	C293.128876,119.988213 288.271667,117.993965 282.942322,115.658508 
	C282.942322,121.134262 282.942322,126.055893 282.827026,131.346710 
	C281.812683,131.641434 280.196625,131.733032 280.134491,131.464706 
	C279.804626,130.040634 279.864807,128.526199 279.864868,126.581017 
	C279.952667,123.004211 280.149078,119.874870 279.903229,116.780678 
	C279.774536,115.161453 279.298706,113.181892 278.233795,112.097687 
	C275.034698,108.840607 271.468964,105.943657 267.921570,102.557510 
	C267.216156,102.292801 266.130768,102.361862 266.127808,102.462883 
	C266.030823,105.745407 266.024872,109.031044 266.034119,112.316132 
	C266.040985,114.751266 265.060486,115.264374 263.060333,113.903519 
	C263.060333,113.903519 263.053589,113.998741 263.151855,113.529251 
	C263.167389,107.029831 263.084625,100.999893 263.001862,94.969963 
z"/>
<path fill="#535B64" opacity="1.000000" stroke="none" 
	d="
M102.101761,188.122940 
	C95.624542,169.184830 103.782951,154.058182 122.367752,142.860077 
	C134.892593,135.313339 148.539673,131.694366 162.887024,129.968384 
	C183.036957,127.544342 202.810852,128.936417 221.923538,135.981827 
	C233.754288,140.342926 244.449738,146.394165 252.522476,156.728195 
	C259.413513,165.549530 260.067200,175.005020 257.565674,185.800278 
	C256.714722,190.464844 256.308533,194.590286 255.831848,198.707581 
	C255.636475,200.395264 256.595184,203.188431 253.020203,201.598083 
	C253.038391,199.126755 253.038391,197.073608 253.038391,194.135559 
	C250.801483,196.499832 249.536346,198.658676 247.653687,199.687439 
	C238.540512,204.667252 238.071671,212.764465 239.236938,221.580078 
	C239.258453,221.742905 239.300598,221.903030 239.253723,222.446091 
	C238.799271,224.254364 239.910034,227.045380 236.494385,225.263672 
	C236.428452,219.377289 236.098511,213.914581 236.512741,208.508896 
	C236.672501,206.424103 238.202850,204.189972 239.666977,202.510559 
	C243.098373,198.574570 246.866913,194.932495 250.712463,191.007126 
	C251.266220,190.228790 251.606476,189.614761 252.174835,188.725708 
	C253.266800,185.984863 254.130692,183.519043 255.004028,180.591568 
	C255.040878,166.578796 248.831070,154.454834 240.095535,151.455093 
	C240.095535,156.972214 240.095535,162.396729 239.756714,168.022491 
	C239.033325,169.543488 238.648773,170.863220 238.264206,172.182968 
	C237.835449,172.127701 237.406677,172.072418 236.977905,172.017136 
	C236.650208,169.695709 236.322510,167.374268 236.004013,164.581573 
	C236.014954,159.652908 236.080429,155.194000 235.976349,150.739059 
	C235.948196,149.534317 235.789337,147.691864 235.038254,147.249496 
	C230.407944,144.522369 225.590942,142.112213 219.999252,139.153976 
	C219.999252,146.476395 219.999252,152.241333 219.960205,158.386337 
	C219.285782,160.432266 218.650406,162.098114 217.936111,163.557892 
	C217.642853,163.141068 217.392227,162.990936 217.081375,162.483337 
	C217.036606,160.393524 217.015762,158.721771 217.004166,156.578506 
	C217.013412,150.194626 217.013412,144.282257 217.013412,138.253036 
	C211.526169,137.031128 206.550568,135.923157 201.046631,134.697540 
	C201.046631,141.737869 201.046631,147.824997 200.799438,154.192932 
	C200.347351,155.968323 200.142456,157.462906 199.603317,158.981720 
	C198.827072,159.062988 198.385086,159.120010 197.605469,158.944672 
	C197.178696,156.803970 197.089523,154.895630 197.007629,152.519699 
	C197.014893,146.136703 197.014893,140.221298 197.014893,133.681107 
	C191.401398,133.384781 186.416336,133.121628 181.002731,132.835861 
	C181.002731,139.818665 181.002731,145.921906 180.956848,152.424728 
	C180.560791,154.500549 180.210617,156.176773 179.860428,157.853012 
	C179.320419,157.781860 178.780426,157.710709 178.240417,157.639542 
	C178.158447,155.777451 178.076462,153.915359 178.003906,151.581543 
	C178.013336,145.199554 178.013336,139.289291 178.013336,132.649216 
	C172.266006,133.114746 167.290344,133.517776 162.004868,133.945908 
	C162.004868,140.820145 162.004868,146.934692 161.906769,153.412766 
	C161.512894,155.497208 161.217102,157.218140 160.608765,158.963791 
	C159.878494,158.985123 159.460770,158.981720 158.937958,158.619873 
	C158.556458,156.820877 158.280029,155.380310 158.009766,153.475128 
	C158.015915,147.104706 158.015915,141.198898 158.015915,134.402863 
	C152.184692,135.809219 147.193497,137.012985 142.002853,138.264862 
	C142.002853,145.162766 142.002853,151.596756 141.980957,158.457062 
	C141.690704,160.414200 141.422348,161.944992 141.153992,163.475800 
	C140.653854,163.459518 140.153702,163.443222 139.653549,163.426941 
	C139.435257,161.954330 139.216965,160.481735 139.006470,158.540222 
	C139.014282,152.179489 139.014282,146.287674 139.014282,139.312668 
	C133.552170,141.900085 128.922440,143.909698 124.516922,146.327820 
	C123.584579,146.839554 123.088440,148.833435 123.049171,150.163849 
	C122.892982,155.455093 122.997154,160.754044 122.942444,166.430939 
	C122.499039,168.564117 122.118080,170.316498 121.496628,173.175140 
	C120.235550,171.062180 119.581734,169.966705 118.955734,168.412170 
	C118.983543,162.410019 118.983543,156.866928 118.983543,151.323822 
	C118.577057,151.161377 118.170578,150.998917 117.764091,150.836472 
	C115.688797,152.869202 113.355980,154.701111 111.585564,156.971573 
	C105.834099,164.347534 101.849213,172.289932 105.006577,182.431778 
	C106.310669,185.619125 107.615128,188.423370 108.939484,191.432098 
	C109.063629,191.911819 109.255318,192.095947 109.679604,192.504868 
	C116.587738,198.089844 122.732666,204.572800 130.233795,208.392212 
	C149.883255,218.397293 171.184326,220.450378 192.959824,218.465134 
	C195.193222,218.261520 197.441010,218.216034 200.431366,218.057434 
	C200.431366,225.147766 200.431366,231.603577 200.285355,238.312576 
	C199.273926,238.404800 198.408508,238.243835 197.627884,237.616730 
	C197.712677,231.914398 197.712677,226.678223 197.712677,221.337570 
	C191.857880,221.731873 186.636826,222.083511 181.153854,222.452774 
	C181.153854,228.184341 181.153854,233.609970 181.051132,239.338943 
	C179.946381,239.433456 178.944366,239.224640 178.026718,238.552917 
	C178.111099,232.981018 178.111099,227.872025 178.111099,222.466537 
	C172.307251,222.071671 166.958099,221.707748 161.343506,221.325760 
	C161.343506,227.158218 161.343506,232.609329 161.128723,238.392090 
	C160.046982,238.189423 159.180038,237.655090 158.458115,236.665466 
	C158.638885,232.087387 158.858261,227.953094 158.600525,223.848755 
	C158.521362,222.587830 157.362762,220.632614 156.311188,220.326767 
	C151.759476,219.002838 147.064377,218.171967 142.107666,217.093491 
	C142.107666,222.536987 142.107666,227.781158 141.998199,233.368256 
	C137.691208,236.427689 139.744385,232.077927 138.962769,230.578110 
	C139.072983,226.467667 139.171982,222.816025 139.058289,219.171005 
	C139.020081,217.945786 138.802444,216.014786 138.050339,215.638474 
	C133.124359,213.173721 128.029343,211.046768 122.669479,208.667389 
	C122.669479,214.262405 122.669479,219.186172 122.507454,224.503937 
	C121.541885,224.872360 120.070908,224.971985 120.038956,224.801666 
	C119.748604,223.253784 119.709297,221.658783 119.701355,219.618729 
	C121.009102,211.149231 119.823425,204.216965 111.918129,199.793625 
	C109.991127,198.715378 108.679611,196.537125 106.831177,194.584808 
	C106.362457,197.676819 106.369400,201.085587 105.817688,204.401382 
	C105.612854,205.632416 104.098320,206.645523 103.181046,207.757996 
	C103.181038,207.757996 103.026802,207.825302 103.126152,207.439682 
	C103.184357,205.063629 103.217339,203.068344 103.086876,201.083786 
	C102.802666,196.760590 102.435196,192.442886 102.101761,188.122940 
z"/>
<path fill="#E9F1FE" opacity="1.000000" stroke="none" 
	d="
M298.976532,138.014435 
	C299.877838,139.031128 298.102661,143.030518 302.458313,140.426010 
	C308.163879,141.444290 313.401642,142.755508 318.639404,144.066711 
	C319.456940,144.605972 320.274506,145.145218 321.749207,145.366241 
	C327.641663,145.354889 332.876953,145.661774 338.112213,145.968658 
	C339.090057,146.192780 340.067902,146.416901 341.601349,146.335297 
	C347.352905,145.702667 352.548859,145.375793 357.744812,145.048920 
	C358.719543,144.912720 359.694244,144.776520 361.237061,144.324402 
	C368.501709,142.356339 375.282379,140.979187 381.867859,138.964081 
	C387.030029,137.384476 391.950592,135.015259 396.978516,132.996857 
	C397.777924,131.957947 398.577362,130.919052 399.788849,129.399292 
	C406.607544,123.560684 412.299072,117.745934 413.067169,108.784889 
	C415.938629,110.119919 415.851959,108.183060 415.999481,106.249565 
	C416.327972,101.943413 416.780334,97.646713 417.555237,93.220367 
	C421.954834,99.294052 420.898438,106.267044 420.895691,113.528320 
	C418.362030,117.744888 416.428894,122.031921 413.315643,125.134850 
	C408.618042,129.816864 403.096710,133.672333 397.342438,137.669403 
	C395.808838,138.636887 394.858307,139.814041 393.551941,141.040421 
	C388.123474,143.070145 383.050781,145.050659 377.594482,147.071686 
	C350.583313,154.714203 324.175568,153.968689 297.983765,145.025513 
	C290.241272,140.645828 282.206757,136.700195 274.848297,131.749680 
	C268.920044,127.761360 264.364441,122.179428 263.041382,114.299454 
	C265.060486,115.264374 266.040985,114.751266 266.034119,112.316132 
	C266.024872,109.031044 266.030823,105.745407 266.127808,102.462883 
	C266.130768,102.361862 267.216156,102.292801 267.893677,103.005127 
	C267.747406,113.668808 271.772125,121.369545 279.789917,127.043076 
	C279.864807,128.526199 279.804626,130.040634 280.134491,131.464706 
	C280.196625,131.733032 281.812683,131.641434 283.187927,131.385208 
	C288.768250,133.374481 293.872406,135.694458 298.976532,138.014435 
z"/>
<path fill="#E9F1FE" opacity="1.000000" stroke="none" 
	d="
M119.596558,220.077576 
	C119.709297,221.658783 119.748604,223.253784 120.038956,224.801666 
	C120.070908,224.971985 121.541885,224.872360 122.829346,224.493546 
	C128.498322,226.405930 133.683380,228.722717 138.868439,231.039490 
	C139.744385,232.077927 137.691208,236.427689 142.364410,233.409943 
	C147.997772,234.446075 153.155441,235.783417 158.313095,237.120758 
	C159.180038,237.655090 160.046982,238.189423 161.538727,238.382278 
	C167.423126,238.365814 172.682739,238.690826 177.942337,239.015823 
	C178.944366,239.224640 179.946381,239.433456 181.505249,239.329132 
	C187.222427,238.704956 192.382751,238.393890 197.543091,238.082855 
	C198.408508,238.243835 199.273926,238.404800 200.644241,238.228943 
	C203.217545,237.386200 205.349472,237.057831 207.343552,236.344254 
	C217.091690,232.855911 226.803055,229.264832 236.527435,225.710083 
	C239.910034,227.045380 238.799271,224.254364 239.574387,222.384613 
	C246.657013,216.829681 251.817337,210.722656 253.002014,202.016251 
	C256.595184,203.188431 255.636475,200.395264 255.831848,198.707581 
	C256.308533,194.590286 256.714722,190.464844 257.526489,186.231720 
	C258.365570,187.343079 258.827454,188.565399 259.625122,189.838348 
	C259.986389,194.974243 260.011841,200.059525 260.034943,205.564545 
	C256.602142,215.966522 249.594894,223.066864 241.311447,229.110428 
	C240.259109,229.878204 238.967407,230.317886 237.173050,230.732483 
	C235.648483,231.698593 234.737457,232.841797 233.476532,234.040085 
	C227.416061,236.391891 221.705460,238.688614 215.587372,240.992493 
	C214.516022,241.045502 213.818222,240.973846 213.193207,241.154297 
	C194.447693,246.566559 175.491028,246.210327 156.486557,243.028168 
	C150.291992,241.990936 144.205933,240.305481 138.070251,238.916504 
	C133.279938,236.397705 128.422195,233.998062 123.714569,231.333191 
	C116.000893,226.966675 109.345772,221.382080 104.856728,213.588287 
	C103.979454,212.065186 103.631088,210.237442 103.109909,208.154099 
	C104.098320,206.645523 105.612854,205.632416 105.817688,204.401382 
	C106.369400,201.085587 106.362457,197.676819 106.809074,195.022446 
	C107.611122,205.717438 110.674843,214.408554 119.596558,220.077576 
z"/>
<path fill="#E9F1FE" opacity="1.000000" stroke="none" 
	d="
M102.045639,188.523560 
	C102.435196,192.442886 102.802666,196.760590 103.086876,201.083786 
	C103.217339,203.068344 103.184357,205.063629 103.154541,207.518890 
	C102.264328,206.160461 101.445068,204.337189 100.401306,202.253738 
	C100.781044,197.637085 101.385284,193.280624 102.045639,188.523560 
z"/>
<path fill="#E9F1FE" opacity="1.000000" stroke="none" 
	d="
M262.625549,95.109764 
	C263.084625,100.999893 263.167389,107.029831 263.199585,113.527618 
	C262.308411,111.846321 261.467804,109.697151 260.400696,107.270157 
	C260.865814,103.078072 261.557526,99.163818 262.625549,95.109764 
z"/>
<path fill="#E4ECFB" opacity="1.000000" stroke="none" 
	d="
M99.620010,335.823730 
	C100.108536,342.076569 99.611595,348.634521 100.626175,354.949585 
	C102.817482,368.589050 112.605690,376.603363 123.645401,383.212982 
	C127.584023,385.571075 132.018570,387.100830 136.852081,389.287537 
	C151.081177,394.649506 165.273972,397.113007 179.660934,396.780304 
	C190.623138,396.526764 201.541428,394.375000 212.581909,393.483337 
	C212.927597,395.630920 213.170639,397.362885 213.413681,399.094879 
	C213.986496,399.106384 214.559326,399.117889 215.132141,399.129395 
	C215.445236,396.754669 215.758347,394.379974 216.433533,391.956360 
	C222.479233,389.608643 228.162857,387.309784 233.987091,385.343628 
	C235.096375,385.426270 236.648712,385.442017 236.909515,384.869446 
	C237.416672,383.755981 237.199310,382.312531 237.282074,381.005768 
	C238.561447,380.761566 240.110931,380.899231 241.078796,380.214600 
	C251.795334,372.634338 259.878754,363.373199 259.994690,349.287750 
	C260.028931,345.127441 260.014191,340.966766 260.037903,336.328125 
	C262.006897,338.832489 264.911255,341.569153 265.755981,344.838043 
	C270.611847,363.629639 269.094238,382.568085 252.141220,395.964539 
	C242.579803,403.520050 231.830444,408.587494 220.238724,412.000397 
	C204.433182,416.653931 188.283112,418.258453 171.430817,416.638367 
	C171.005219,413.763062 170.950989,411.428345 171.016068,409.096985 
	C171.089539,406.464020 169.994156,405.381866 167.265930,404.945160 
	C157.975281,403.458099 148.503891,402.422180 139.537292,399.751160 
	C126.771896,395.948486 114.842827,390.241699 104.971901,380.681458 
	C98.873466,374.775085 95.756821,367.506226 92.819244,359.948242 
	C92.226379,351.222046 93.895607,343.110321 99.620010,335.823730 
z"/>
<path fill="#CBD9F1" opacity="1.000000" stroke="none" 
	d="
M92.636246,360.299194 
	C95.756821,367.506226 98.873466,374.775085 104.971901,380.681458 
	C114.842827,390.241699 126.771896,395.948486 139.537292,399.751160 
	C148.503891,402.422180 157.975281,403.458099 167.265930,404.945160 
	C169.994156,405.381866 171.089539,406.464020 171.016068,409.096985 
	C170.950989,411.428345 171.005219,413.763062 171.005096,416.556335 
	C146.919067,416.028717 124.636269,409.878967 106.011497,393.765778 
	C95.982285,385.088989 91.245895,374.033173 92.636246,360.299194 
z"/>
<path fill="#CBDAF2" opacity="1.000000" stroke="none" 
	d="
M260.374298,295.182220 
	C260.049957,291.137024 260.049957,287.153503 260.049957,282.685303 
	C280.303009,303.943787 305.991669,310.747955 333.512573,312.394440 
	C328.922455,314.841583 331.755737,319.395264 331.009277,323.484253 
	C304.258362,322.497833 279.782227,315.477692 260.374298,295.182220 
z"/>
<path fill="#CBDBF4" opacity="1.000000" stroke="none" 
	d="
M297.989655,145.491638 
	C324.175568,153.968689 350.583313,154.714203 377.601135,147.530319 
	C378.397125,152.010757 378.802887,156.073059 378.982849,160.417206 
	C377.923676,160.973373 377.090271,161.247742 375.233459,161.858994 
	C375.233459,157.241394 375.233459,153.349213 375.233459,149.457047 
	C374.672668,149.453079 374.111877,149.449112 373.551117,149.445145 
	C373.329346,151.081985 372.920776,152.718185 372.915039,154.355804 
	C372.863556,168.989563 372.898254,183.623611 372.878632,198.257538 
	C372.833099,232.178864 372.771393,266.100159 372.716248,300.021484 
	C363.571381,301.258392 354.457916,302.999207 345.271637,303.571045 
	C338.065430,304.019653 330.672363,303.636383 323.537720,302.510773 
	C314.763580,301.126587 306.171661,298.587097 297.246948,296.283020 
	C297.328613,294.121094 297.955383,292.223450 297.957428,290.325134 
	C298.009979,242.202728 297.997009,194.080246 297.989655,145.491638 
z"/>
<path fill="#565E67" opacity="1.000000" stroke="none" 
	d="
M237.204895,380.542389 
	C237.199310,382.312531 237.416672,383.755981 236.909515,384.869446 
	C236.648712,385.442017 235.096375,385.426270 234.044800,384.899170 
	C233.961899,381.224365 233.961899,378.326782 233.961899,375.373810 
	C233.143204,375.469330 232.785034,375.414764 232.536118,375.554626 
	C228.931702,377.580170 225.473053,379.925507 221.715561,381.603088 
	C216.982529,383.716187 214.702362,386.769775 216.071442,392.005249 
	C215.758347,394.379974 215.445236,396.754669 215.132141,399.129395 
	C214.559326,399.117889 213.986496,399.106384 213.413681,399.094879 
	C213.170639,397.362885 212.927597,395.630920 212.676819,393.050018 
	C212.871124,342.359985 212.433289,292.511536 212.891220,242.673325 
	C213.725815,242.632751 214.560394,242.592178 215.394974,242.551590 
	C215.671402,246.587433 215.947830,250.623260 216.252975,255.078491 
	C217.589859,254.196228 218.396637,253.663818 219.539368,253.054382 
	C221.606705,251.993103 223.232697,250.686035 225.087708,250.080475 
	C233.165482,247.443573 235.406723,241.787933 233.826416,233.984985 
	C234.737457,232.841797 235.648483,231.698593 236.825623,230.774246 
	C237.103714,280.688416 237.115723,330.383698 237.204895,380.542389 
M216.883530,333.346924 
	C220.350952,331.431122 223.846497,329.564240 227.279999,327.589478 
	C234.705383,323.318909 235.571762,321.026581 233.141785,312.087952 
	C230.096909,313.828003 227.275330,316.031555 224.074615,317.153381 
	C216.013672,319.978699 214.612549,325.733734 216.883530,333.346924 
M222.687042,267.170013 
	C225.714630,265.422180 228.806702,263.773529 231.733337,261.870483 
	C232.700974,261.241272 233.786270,260.003601 233.876892,258.962280 
	C234.155396,255.762726 233.978302,252.523529 233.978302,248.570862 
	C228.126465,251.926498 223.043137,254.709717 218.128662,257.764557 
	C217.075348,258.419281 216.140259,260.005676 216.008820,261.253265 
	C215.700027,264.184540 215.909943,267.170471 215.909943,270.944397 
	C218.377258,269.588165 220.223694,268.573242 222.687042,267.170013 
M233.991089,283.212891 
	C233.933502,282.431580 233.875900,281.650299 233.767334,280.177338 
	C228.049973,283.478821 222.738876,286.463806 217.540359,289.633392 
	C216.734665,290.124634 216.051132,291.435547 215.988266,292.411011 
	C215.790497,295.480194 215.915421,298.570190 215.915421,302.513153 
	C220.133759,300.106384 223.388657,297.756470 227.003418,296.299469 
	C232.790680,293.966797 235.160126,290.116425 233.991089,283.212891 
M218.464478,285.340637 
	C221.330246,283.694977 224.196793,282.050659 227.061630,280.403351 
	C234.838181,275.931793 235.476761,274.363251 233.162003,264.804626 
	C228.948273,267.217407 224.964188,269.880310 220.662506,271.849304 
	C216.742706,273.643494 215.069992,276.230255 215.940201,280.348297 
	C216.329422,282.190247 217.140945,283.942932 218.464478,285.340637 
M215.901260,342.611633 
	C215.901260,344.687439 215.901260,346.763275 215.901260,349.866547 
	C220.426102,347.264984 223.986008,345.225159 227.539246,343.173798 
	C234.601059,339.096832 235.663147,336.230438 233.035187,327.907135 
	C228.390106,330.574738 223.876984,333.381165 219.161087,335.790741 
	C216.521332,337.139496 215.476105,338.913635 215.901260,342.611633 
M230.795807,344.942383 
	C228.217209,346.421570 225.641037,347.905029 223.059525,349.379150 
	C214.724548,354.138794 214.636459,354.339172 216.567535,365.265564 
	C221.983887,362.131805 228.009857,359.889404 232.129486,355.749786 
	C234.266998,353.601929 233.032150,348.097992 233.320786,344.110168 
	C232.712143,344.257996 232.103485,344.405792 230.795807,344.942383 
M218.997406,379.651917 
	C223.142517,377.247925 227.344406,374.933990 231.395279,372.380524 
	C232.491058,371.689789 233.737152,370.339172 233.861633,369.178558 
	C234.201096,366.013855 233.978378,362.788879 233.978378,358.901703 
	C228.055374,362.292938 222.885254,365.172882 217.804550,368.202728 
	C215.850525,369.367981 214.940948,378.661377 216.544403,380.444397 
	C216.735458,380.656860 217.707504,380.166992 218.997406,379.651917 
M232.383469,296.791199 
	C227.791443,299.415558 223.131165,301.930969 218.652863,304.736877 
	C217.454849,305.487488 216.209213,307.047058 216.037674,308.371521 
	C215.649002,311.372345 215.915344,314.457947 215.915344,318.291412 
	C220.566727,315.628784 224.417023,313.453461 228.239380,311.230072 
	C234.462112,307.610504 235.655426,303.927521 232.383469,296.791199 
z"/>
<path fill="#565E67" opacity="1.000000" stroke="none" 
	d="
M372.795471,300.439728 
	C372.771393,266.100159 372.833099,232.178864 372.878632,198.257538 
	C372.898254,183.623611 372.863556,168.989563 372.915039,154.355804 
	C372.920776,152.718185 373.329346,151.081985 373.551117,149.445145 
	C374.111877,149.449112 374.672668,149.453079 375.233459,149.457047 
	C375.233459,153.349213 375.233459,157.241394 375.233459,161.858994 
	C377.090271,161.247742 377.923676,160.973373 379.319550,160.343521 
	C381.762939,158.923569 383.534271,157.538757 385.544159,156.851242 
	C393.410370,154.160507 395.533569,148.603699 393.907745,140.991211 
	C394.858307,139.814041 395.808838,138.636887 397.005585,137.718658 
	C397.259064,188.013763 397.266388,238.049911 397.370056,288.546082 
	C396.167847,289.993408 399.381744,294.974152 394.181763,291.856995 
	C394.078064,288.213379 394.078064,285.313263 394.078064,281.666504 
	C389.500427,284.270813 385.789520,286.761139 381.771637,288.569427 
	C377.018494,290.708618 374.832153,293.804230 376.154694,299.006866 
	C375.867371,301.350433 375.580078,303.694000 375.292755,306.037567 
	C374.720367,306.032990 374.147980,306.028412 373.575592,306.023834 
	C373.341949,304.301880 373.108337,302.579926 372.795471,300.439728 
M383.262817,224.810181 
	C374.949432,227.205215 375.356079,233.550903 376.411102,240.789413 
	C381.992249,237.583679 387.409515,234.532867 392.739075,231.335846 
	C393.424866,230.924469 393.997223,229.770599 394.036560,228.933151 
	C394.186707,225.737579 394.097198,222.530716 394.097198,218.569733 
	C390.130859,220.835693 387.005188,222.621414 383.262817,224.810181 
M380.192902,175.667969 
	C383.904755,173.506256 387.693970,171.462936 391.285004,169.116287 
	C392.484467,168.332474 393.803772,166.855667 393.975403,165.551773 
	C394.372437,162.535294 394.101593,159.430908 394.101593,155.520889 
	C388.078125,158.981003 382.773529,161.914230 377.623230,165.097122 
	C376.748138,165.637939 376.172089,167.223328 376.087433,168.372498 
	C375.872955,171.283966 376.016235,174.221802 376.016235,177.702759 
	C377.550812,176.967804 378.551636,176.488495 380.192902,175.667969 
M389.582031,185.971802 
	C394.774597,182.903229 395.324554,180.948166 393.334808,171.726166 
	C389.669464,173.821716 386.119446,175.832779 382.587189,177.874603 
	C375.255768,182.112503 374.525909,184.006439 376.884064,193.239822 
	C380.960266,190.906448 384.941772,188.627304 389.582031,185.971802 
M388.635651,281.073273 
	C396.621185,278.505493 393.681946,272.060211 394.017731,265.945770 
	C388.811737,268.897675 384.113800,271.557922 379.420624,274.226471 
	C378.701904,274.635132 377.855835,274.951904 377.337250,275.545746 
	C376.743500,276.225616 376.122101,277.152435 376.083679,277.997925 
	C375.938660,281.189087 376.025421,284.390778 376.025421,288.303314 
	C380.575378,285.698029 384.281921,283.575714 388.635651,281.073273 
M393.844208,214.627991 
	C393.844208,210.928955 393.844208,207.229904 393.844208,202.980148 
	C389.794678,205.274658 386.332214,207.209534 382.895538,209.189285 
	C375.292053,213.569412 374.415588,215.802658 376.898926,224.839371 
	C382.404175,221.607986 387.839630,218.417557 393.844208,214.627991 
M382.309540,256.854004 
	C374.938934,261.000732 374.899323,261.101501 376.586426,272.168304 
	C380.286133,270.076080 383.852814,268.105927 387.374207,266.058014 
	C394.949188,261.652771 395.529877,260.166595 393.272095,250.613510 
	C389.752655,252.602417 386.343689,254.528885 382.309540,256.854004 
M376.011902,200.838379 
	C376.011902,203.436401 376.011902,206.034409 376.011902,209.469147 
	C380.467560,206.944000 384.203949,204.871109 387.897064,202.723816 
	C394.667816,198.787094 395.774872,195.643677 393.059570,187.631531 
	C387.974945,190.551651 382.884033,193.335800 377.975006,196.410294 
	C376.971222,197.038956 376.649536,198.756683 376.011902,200.838379 
M383.200256,252.764008 
	C386.055176,251.093170 388.999420,249.552567 391.720001,247.685913 
	C392.774506,246.962387 393.867432,245.559387 393.994995,244.364685 
	C394.317352,241.345856 394.101868,238.269592 394.101868,235.268921 
	C393.116180,235.268921 392.734619,235.151825 392.494171,235.286575 
	C389.177216,237.145508 385.872253,239.026215 382.578918,240.926865 
	C375.314453,245.119370 374.461823,247.344193 376.926483,256.254517 
	C378.844025,255.176407 380.689117,254.139023 383.200256,252.764008 
z"/>
<path fill="#D8E3F7" opacity="1.000000" stroke="none" 
	d="
M376.506439,298.954559 
	C374.832153,293.804230 377.018494,290.708618 381.771637,288.569427 
	C385.789520,286.761139 389.500427,284.270813 394.078064,281.666504 
	C394.078064,285.313263 394.078064,288.213379 394.013947,291.557709 
	C388.252625,294.302032 382.555389,296.602142 376.506439,298.954559 
z"/>
<path fill="#CADAF3" opacity="1.000000" stroke="none" 
	d="
M219.203400,253.131409 
	C218.396637,253.663818 217.589859,254.196228 216.252975,255.078491 
	C215.947830,250.623260 215.671402,246.587433 215.394974,242.551590 
	C214.560394,242.592178 213.725815,242.632751 212.891220,242.673325 
	C212.433289,292.511536 212.871124,342.359985 212.574173,392.634460 
	C201.541428,394.375000 190.623138,396.526764 179.660934,396.780304 
	C165.273972,397.113007 151.081177,394.649506 137.227768,389.308594 
	C137.318558,386.985016 137.953476,384.919617 137.956192,382.853363 
	C138.018951,335.192780 138.012970,287.532074 138.045013,239.393951 
	C144.205933,240.305481 150.291992,241.990936 156.486557,243.028168 
	C175.491028,246.210327 194.447693,246.566559 213.193207,241.154297 
	C213.818222,240.973846 214.516022,241.045502 215.882095,241.237305 
	C217.053940,243.183472 217.593765,244.876495 217.975449,246.604431 
	C218.452744,248.765076 218.800003,250.954437 219.203400,253.131409 
z"/>
<path fill="#CBDBF3" opacity="1.000000" stroke="none" 
	d="
M396.929626,132.530701 
	C391.950592,135.015259 387.030029,137.384476 381.867859,138.964081 
	C375.282379,140.979187 368.501709,142.356339 361.369812,144.001343 
	C360.841064,139.675797 360.704376,135.357773 360.664459,131.038864 
	C360.604706,124.573349 360.601532,124.449226 354.281311,125.215179 
	C340.092590,126.934723 326.025055,126.154633 312.140076,122.960564 
	C296.521027,119.367599 281.980591,113.563515 270.992493,100.409714 
	C275.211151,95.197296 278.844360,89.746330 283.858337,86.309944 
	C299.360046,75.685654 317.215729,71.988220 335.680756,71.044434 
	C349.378296,70.344330 362.915314,72.100845 375.928101,76.269478 
	C389.330170,80.562836 402.043213,86.366676 410.013092,99.020844 
	C406.686981,102.413109 403.599854,106.096779 399.947876,109.091667 
	C397.645416,110.979851 396.591766,112.746948 396.717743,115.693230 
	C396.950745,121.142693 396.845245,126.606636 396.929626,132.530701 
M320.421478,104.557983 
	C319.518524,109.364967 321.258942,112.870750 325.521027,115.256798 
	C334.907501,120.511604 344.549072,120.163933 354.180969,116.307587 
	C359.558197,114.154701 361.572418,109.804680 360.340240,104.333733 
	C361.631805,98.629074 360.385529,95.480408 355.514008,92.787689 
	C346.512238,87.812027 337.202393,87.770134 327.886353,91.673805 
	C321.911682,94.177345 319.467163,98.910934 320.421478,104.557983 
z"/>
<path fill="#BCD0EF" opacity="1.000000" stroke="none" 
	d="
M410.269867,98.851456 
	C402.043213,86.366676 389.330170,80.562836 375.928101,76.269478 
	C362.915314,72.100845 349.378296,70.344330 335.680756,71.044434 
	C317.215729,71.988220 299.360046,75.685654 283.858337,86.309944 
	C278.844360,89.746330 275.211151,95.197296 270.868164,100.112732 
	C269.948395,99.536163 269.106781,98.573593 268.529358,97.239548 
	C275.271362,86.332458 284.322113,78.712593 295.784454,74.302094 
	C303.342560,71.393875 311.248566,69.389679 319.443756,66.980225 
	C330.056793,66.654289 340.224030,66.297768 350.393463,66.023331 
	C353.241058,65.946480 356.095154,66.111374 358.946289,66.165375 
	C359.112579,66.118927 359.278839,66.072495 359.942413,66.291428 
	C366.039886,67.627861 371.640015,68.698921 377.240173,69.769974 
	C377.628693,69.996887 378.017181,70.223801 378.796722,70.901199 
	C382.038483,72.687111 384.863953,74.079910 387.744476,75.347633 
	C397.909424,79.821205 405.724335,87.034195 412.024658,96.034004 
	C411.525330,96.916695 411.025970,97.799385 410.269867,98.851456 
z"/>
<path fill="#E9F0FE" opacity="1.000000" stroke="none" 
	d="
M318.998779,66.980698 
	C311.248566,69.389679 303.342560,71.393875 295.784454,74.302094 
	C284.322113,78.712593 275.271362,86.332458 268.463196,96.929832 
	C267.093567,94.591858 266.054321,92.192116 265.344177,89.320465 
	C270.078735,84.494980 274.484100,80.141418 278.889496,75.787857 
	C279.588989,76.895088 280.288513,78.002327 281.842834,80.462700 
	C282.359711,77.357269 282.649689,75.614906 283.318542,73.350975 
	C288.799042,70.542458 293.900635,68.255508 299.002258,65.968559 
	C299.323212,67.455200 299.644135,68.941849 299.965027,70.428490 
	C300.398926,70.434387 300.832794,70.440285 301.266693,70.446182 
	C301.754913,68.566109 302.243134,66.686035 303.285370,64.404190 
	C308.540100,62.969101 313.240814,61.935780 317.941528,60.902458 
	C318.275757,62.318295 318.610016,63.734138 318.978394,65.797501 
	C319.007935,66.623581 319.003357,66.802139 318.998779,66.980698 
z"/>
<path fill="#000000" opacity="1.000000" stroke="none" 
	d="
M322.004395,60.050961 
	C321.995880,55.235027 322.309387,50.390209 321.880676,45.611973 
	C321.513641,41.520779 323.634399,40.266037 326.904938,40.052265 
	C330.350983,39.827019 333.823120,40.001793 338.015839,40.001793 
	C338.015839,46.267513 338.015839,52.178852 337.560242,58.543549 
	C332.071228,59.348255 327.037811,59.699608 322.004395,60.050961 
z"/>
<path fill="#000000" opacity="1.000000" stroke="none" 
	d="
M341.003662,59.037395 
	C341.003662,52.934303 341.003662,46.831207 341.003662,40.046295 
	C345.093597,40.046295 348.845520,39.843521 352.564087,40.108688 
	C355.693054,40.331814 357.449310,41.849140 357.110443,45.567215 
	C356.706085,50.003498 357.005096,54.503883 356.531860,59.481544 
	C351.044067,59.670189 346.023865,59.353794 341.003662,59.037395 
z"/>
<path fill="#000000" opacity="1.000000" stroke="none" 
	d="
M299.009796,65.502228 
	C293.900635,68.255508 288.799042,70.542458 283.351318,72.942390 
	C282.996094,68.926529 283.387909,64.747307 282.876953,60.681541 
	C282.231049,55.542076 284.578369,52.812592 288.902588,50.994167 
	C292.021912,49.682434 295.090088,48.249023 299.017334,46.496769 
	C299.017334,53.275246 299.017334,59.155567 299.009796,65.502228 
z"/>
<path fill="#000000" opacity="1.000000" stroke="none" 
	d="
M360.996704,60.939323 
	C360.996704,54.844429 360.996704,48.749538 360.996704,41.388969 
	C366.436432,42.760323 371.258850,43.851944 375.968201,45.309017 
	C376.608734,45.507195 376.947205,47.527340 376.974304,48.714172 
	C377.083710,53.510735 377.016479,58.311325 376.596924,63.555786 
	C371.118500,62.980541 366.057617,61.959934 360.996704,60.939323 
z"/>
<path fill="#000000" opacity="1.000000" stroke="none" 
	d="
M317.971375,60.441071 
	C313.240814,61.935780 308.540100,62.969101 303.421936,64.033379 
	C302.992767,58.924385 303.124451,53.778542 302.913635,48.646763 
	C302.793762,45.728424 304.016327,44.467270 306.718628,43.969566 
	C310.220276,43.324646 313.684265,42.475494 318.001221,41.531246 
	C318.001221,48.169376 318.001221,54.074532 317.971375,60.441071 
z"/>
<path fill="#000000" opacity="1.000000" stroke="none" 
	d="
M380.004547,65.049164 
	C380.004547,59.140823 380.004547,53.232487 380.004547,46.014793 
	C385.630402,48.845814 390.344604,51.030716 394.818176,53.629818 
	C395.696228,54.139984 395.926056,56.242889 395.968658,57.626175 
	C396.106354,62.100456 396.017670,66.581703 395.655945,71.437729 
	C390.198639,69.559853 385.101593,67.304512 380.004547,65.049164 
z"/>
<path fill="#C8D8F1" opacity="1.000000" stroke="none" 
	d="
M357.810059,144.581909 
	C352.548859,145.375793 347.352905,145.702667 341.711365,146.041382 
	C341.265747,140.608200 341.265747,135.163177 341.265747,129.407837 
	C346.778259,129.023132 352.024078,128.657028 357.875275,128.248672 
	C357.875275,133.583649 357.875275,138.849274 357.810059,144.581909 
z"/>
<path fill="#C7D7EF" opacity="1.000000" stroke="none" 
	d="
M338.199738,145.509308 
	C332.876953,145.661774 327.641663,145.354889 322.012726,145.079498 
	C321.619049,139.647903 321.619049,134.184830 321.619049,128.253403 
	C327.095551,128.630646 332.441284,128.998886 338.287262,129.401581 
	C338.287262,134.814346 338.287262,139.932144 338.199738,145.509308 
z"/>
<path fill="#E8EFFC" opacity="1.000000" stroke="none" 
	d="
M379.999847,65.433632 
	C385.101593,67.304512 390.198639,69.559853 395.647339,71.905380 
	C396.465546,74.318832 396.932098,76.642090 397.398621,78.965355 
	C397.770782,79.008591 398.142944,79.051834 398.515106,79.095070 
	C398.843475,77.847160 399.171844,76.599243 400.148376,75.168579 
	C405.529419,79.007828 410.262299,83.029823 414.995209,87.051819 
	C414.178467,89.881866 413.361755,92.711914 412.284851,95.787979 
	C405.724335,87.034195 397.909424,79.821205 387.744476,75.347633 
	C384.863953,74.079910 382.038483,72.687111 378.972595,71.046326 
	C379.170044,69.100014 379.582581,67.459053 379.999847,65.433632 
z"/>
<path fill="#C8D8F1" opacity="1.000000" stroke="none" 
	d="
M318.727539,143.602692 
	C313.401642,142.755508 308.163879,141.444290 302.560364,140.087250 
	C302.194611,134.785233 302.194611,129.529053 302.194611,124.014900 
	C307.177368,125.100609 311.881134,125.938583 316.444794,127.260147 
	C317.497864,127.565086 318.672211,129.485931 318.755524,130.732361 
	C319.030792,134.850754 318.832306,139.000778 318.727539,143.602692 
z"/>
<path fill="#000000" opacity="1.000000" stroke="none" 
	d="
M278.911835,75.333603 
	C274.484100,80.141418 270.078735,84.494980 265.339722,88.952011 
	C261.986786,78.145996 267.847656,64.492134 278.934174,57.886230 
	C278.934174,63.827648 278.934174,69.353500 278.911835,75.333603 
z"/>
<path fill="#CADAF2" opacity="1.000000" stroke="none" 
	d="
M299.080566,137.555481 
	C293.872406,135.694458 288.768250,133.374481 283.303223,131.016022 
	C282.942322,126.055893 282.942322,121.134262 282.942322,115.658508 
	C288.271667,117.993965 293.128876,119.988213 297.825348,122.307922 
	C298.643921,122.712242 299.130219,124.474655 299.175751,125.633171 
	C299.325714,129.448502 299.202759,133.274582 299.080566,137.555481 
z"/>
<path fill="#E8EFFC" opacity="1.000000" stroke="none" 
	d="
M340.985443,59.472343 
	C346.023865,59.353794 351.044067,59.670189 356.505432,59.942989 
	C357.401245,61.836853 357.855896,63.774319 358.628418,65.938583 
	C356.095154,66.111374 353.241058,65.946480 350.393463,66.023331 
	C340.224030,66.297768 330.056793,66.654289 319.443756,66.980225 
	C319.003357,66.802139 319.007935,66.623581 319.022888,66.177315 
	C319.979156,64.209244 320.925079,62.508881 321.937683,60.429741 
	C327.037811,59.699608 332.071228,59.348255 337.550964,59.013874 
	C338.224976,60.874378 338.452637,62.717911 338.680298,64.561440 
	C339.170197,64.581413 339.660065,64.601387 340.149963,64.621361 
	C340.422394,63.050003 340.694824,61.478645 340.985443,59.472343 
z"/>
<path fill="#000000" opacity="1.000000" stroke="none" 
	d="
M415.005310,86.590263 
	C410.262299,83.029823 405.529419,79.007828 400.444641,74.909065 
	C400.092743,69.192604 400.092743,63.552902 400.092743,57.223228 
	C409.818359,64.833549 416.571472,73.291725 415.005310,86.590263 
z"/>
<path fill="#C7D7EF" opacity="1.000000" stroke="none" 
	d="
M413.113281,108.384972 
	C412.299072,117.745934 406.607544,123.560684 399.907440,129.010239 
	C399.488525,124.804489 399.175751,120.499596 399.343933,116.213585 
	C399.399384,114.800018 400.406403,113.131302 401.480255,112.103691 
	C405.048798,108.688713 408.845612,105.512245 413.159424,101.711769 
	C413.159424,103.966270 413.159424,105.975662 413.113281,108.384972 
z"/>
<path fill="#CADAF2" opacity="1.000000" stroke="none" 
	d="
M279.864868,126.581017 
	C271.772125,121.369545 267.747406,113.668808 268.018341,103.353798 
	C271.468964,105.943657 275.034698,108.840607 278.233795,112.097687 
	C279.298706,113.181892 279.774536,115.161453 279.903229,116.780678 
	C280.149078,119.874870 279.952667,123.004211 279.864868,126.581017 
z"/>
<path fill="#E9F1FE" opacity="1.000000" stroke="none" 
	d="
M360.869751,61.291801 
	C366.057617,61.959934 371.118500,62.980541 376.586792,64.027489 
	C377.060760,65.687149 377.127350,67.320473 377.217072,69.361877 
	C371.640015,68.698921 366.039886,67.627861 360.200745,66.273315 
	C360.222107,64.541313 360.482483,63.092796 360.869751,61.291801 
z"/>
<path fill="#CBDBF4" opacity="1.000000" stroke="none" 
	d="
M236.494385,225.263657 
	C226.803055,229.264832 217.091690,232.855911 207.343552,236.344254 
	C205.349472,237.057831 203.217545,237.386200 200.790253,237.975754 
	C200.431366,231.603577 200.431366,225.147766 200.431366,218.057434 
	C197.441010,218.216034 195.193222,218.261520 192.959824,218.465134 
	C171.184326,220.450378 149.883255,218.397293 130.233795,208.392212 
	C122.732666,204.572800 116.587738,198.089844 110.028336,192.360062 
	C110.507263,191.713058 110.856789,191.583099 111.047363,191.332352 
	C122.190094,176.670914 137.977066,170.359970 155.259720,166.780197 
	C167.987167,164.143951 180.757751,163.260300 193.756134,164.919617 
	C208.056076,166.745071 221.964828,169.781311 234.174362,177.689758 
	C240.058167,181.500854 245.084396,186.635895 250.498962,191.171432 
	C246.866913,194.932495 243.098373,198.574570 239.666977,202.510559 
	C238.202850,204.189972 236.672501,206.424103 236.512741,208.508896 
	C236.098511,213.914581 236.428452,219.377289 236.494385,225.263657 
M200.958099,193.025528 
	C201.671768,187.834793 199.139297,184.133423 194.837250,182.062515 
	C185.321869,177.482025 175.526169,177.499832 166.011124,182.117386 
	C160.794678,184.648895 159.326767,188.759323 160.424240,194.558777 
	C159.056473,198.909561 161.019363,202.026215 164.467148,204.201096 
	C174.035385,210.236755 184.106079,210.459152 194.207703,205.798157 
	C199.082565,203.548813 201.900436,199.625595 200.958099,193.025528 
z"/>
<path fill="#BCD0EF" opacity="1.000000" stroke="none" 
	d="
M250.712463,191.007126 
	C245.084396,186.635895 240.058167,181.500854 234.174362,177.689758 
	C221.964828,169.781311 208.056076,166.745071 193.756134,164.919617 
	C180.757751,163.260300 167.987167,164.143951 155.259720,166.780197 
	C137.977066,170.359970 122.190094,176.670914 111.047363,191.332352 
	C110.856789,191.583099 110.507263,191.713058 109.883179,192.044189 
	C109.255318,192.095947 109.063629,191.911819 109.068756,191.093262 
	C111.495239,187.149521 113.406136,183.363754 116.201500,180.417007 
	C126.916107,169.122147 141.010574,164.459869 155.666245,161.006943 
	C156.883575,160.720123 157.921661,159.672470 159.043030,158.978302 
	C159.460770,158.981720 159.878494,158.985123 160.874878,159.258301 
	C166.815903,159.343323 172.177414,159.043625 177.540878,159.002747 
	C184.340790,158.950897 191.142288,159.109283 197.943100,159.177032 
	C198.385086,159.120010 198.827072,159.062988 199.827774,159.281693 
	C204.939499,160.867203 209.473892,162.249710 214.061356,163.425003 
	C214.971558,163.658203 216.085373,163.096527 217.105301,162.901398 
	C217.392227,162.990936 217.642853,163.141068 218.121857,163.865128 
	C223.005203,166.523209 227.674255,168.566757 232.231644,170.834686 
	C240.544418,174.971497 246.500946,181.722214 251.946716,189.000732 
	C251.606476,189.614761 251.266220,190.228790 250.712463,191.007126 
z"/>
<path fill="#E8EFFC" opacity="1.000000" stroke="none" 
	d="
M158.937958,158.619888 
	C157.921661,159.672470 156.883575,160.720123 155.666245,161.006943 
	C141.010574,164.459869 126.916107,169.122147 116.201500,180.417007 
	C113.406136,183.363754 111.495239,187.149521 109.048859,190.888763 
	C107.615128,188.423370 106.310669,185.619125 105.339027,182.320984 
	C110.090538,177.508469 114.509224,173.189850 118.927917,168.871231 
	C119.581734,169.966705 120.235550,171.062180 121.496628,173.175140 
	C122.118080,170.316498 122.499039,168.564117 123.288597,166.318619 
	C128.797684,163.553391 133.898178,161.281250 138.998672,159.009125 
	C139.216965,160.481735 139.435257,161.954330 139.653549,163.426941 
	C140.153702,163.443222 140.653854,163.459518 141.153992,163.475800 
	C141.422348,161.944992 141.690704,160.414200 142.354980,158.329071 
	C147.835129,156.496414 152.919357,155.218079 158.003601,153.939728 
	C158.280029,155.380310 158.556458,156.820877 158.937958,158.619888 
z"/>
<path fill="#000000" opacity="1.000000" stroke="none" 
	d="
M158.009766,153.475128 
	C152.919357,155.218079 147.835129,156.496414 142.376862,157.902740 
	C142.002853,151.596756 142.002853,145.162766 142.002853,138.264862 
	C147.193497,137.012985 152.184692,135.809219 158.015915,134.402863 
	C158.015915,141.198898 158.015915,147.104706 158.009766,153.475128 
z"/>
<path fill="#000000" opacity="1.000000" stroke="none" 
	d="
M162.004868,153.049225 
	C162.004868,146.934692 162.004868,140.820145 162.004868,133.945908 
	C167.290344,133.517776 172.266006,133.114746 178.013336,132.649216 
	C178.013336,139.289291 178.013336,145.199554 177.566467,151.555542 
	C172.081360,152.350586 167.043121,152.699905 162.004868,153.049225 
z"/>
<path fill="#000000" opacity="1.000000" stroke="none" 
	d="
M181.002731,152.025146 
	C181.002731,145.921906 181.002731,139.818665 181.002731,132.835861 
	C186.416336,133.121628 191.401398,133.384781 197.014893,133.681107 
	C197.014893,140.221298 197.014893,146.136703 196.550629,152.523895 
	C191.058472,152.672195 186.030609,152.348663 181.002731,152.025146 
z"/>
<path fill="#000000" opacity="1.000000" stroke="none" 
	d="
M139.006470,158.540222 
	C133.898178,161.281250 128.797684,163.553391 123.351044,165.937836 
	C122.997154,160.754044 122.892982,155.455093 123.049171,150.163849 
	C123.088440,148.833435 123.584579,146.839554 124.516922,146.327820 
	C128.922440,143.909698 133.552170,141.900085 139.014282,139.312668 
	C139.014282,146.287674 139.014282,152.179489 139.006470,158.540222 
z"/>
<path fill="#000000" opacity="1.000000" stroke="none" 
	d="
M201.046631,153.912125 
	C201.046631,147.824997 201.046631,141.737869 201.046631,134.697540 
	C206.550568,135.923157 211.526169,137.031128 217.013412,138.253036 
	C217.013412,144.282257 217.013412,150.194626 216.592651,156.552551 
	C211.130142,155.969437 206.088379,154.940781 201.046631,153.912125 
z"/>
<path fill="#000000" opacity="1.000000" stroke="none" 
	d="
M219.999252,158.006256 
	C219.999252,152.241333 219.999252,146.476395 219.999252,139.153976 
	C225.590942,142.112213 230.407944,144.522369 235.038254,147.249496 
	C235.789337,147.691864 235.948196,149.534317 235.976349,150.739059 
	C236.080429,155.194000 236.014954,159.652908 235.654755,164.466736 
	C230.197266,162.550858 225.098251,160.278564 219.999252,158.006256 
z"/>
<path fill="#C8D7F0" opacity="1.000000" stroke="none" 
	d="
M197.627884,237.616714 
	C192.382751,238.393890 187.222427,238.704956 181.607971,239.025818 
	C181.153854,233.609970 181.153854,228.184341 181.153854,222.452774 
	C186.636826,222.083511 191.857880,221.731873 197.712677,221.337570 
	C197.712677,226.678223 197.712677,231.914398 197.627884,237.616714 
z"/>
<path fill="#C8D8F1" opacity="1.000000" stroke="none" 
	d="
M178.026718,238.552917 
	C172.682739,238.690826 167.423126,238.365814 161.753510,238.050629 
	C161.343506,232.609329 161.343506,227.158218 161.343506,221.325760 
	C166.958099,221.707748 172.307251,222.071671 178.111099,222.466537 
	C178.111099,227.872025 178.111099,232.981018 178.026718,238.552917 
z"/>
<path fill="#C7D7EF" opacity="1.000000" stroke="none" 
	d="
M158.458115,236.665466 
	C153.155441,235.783417 147.997772,234.446075 142.473892,233.067032 
	C142.107666,227.781158 142.107666,222.536987 142.107666,217.093491 
	C147.064377,218.171967 151.759476,219.002838 156.311188,220.326767 
	C157.362762,220.632614 158.521362,222.587830 158.600525,223.848755 
	C158.858261,227.953094 158.638885,232.087387 158.458115,236.665466 
z"/>
<path fill="#E9F0FE" opacity="1.000000" stroke="none" 
	d="
M219.960205,158.386353 
	C225.098251,160.278564 230.197266,162.550858 235.645538,164.938004 
	C236.322510,167.374268 236.650208,169.695709 236.977905,172.017136 
	C237.406677,172.072418 237.835449,172.127701 238.264206,172.182968 
	C238.648773,170.863220 239.033325,169.543488 240.066467,168.193115 
	C245.474899,172.459396 250.234726,176.756317 254.994568,181.053223 
	C254.130692,183.519043 253.266800,185.984863 252.174820,188.725708 
	C246.500946,181.722214 240.544418,174.971497 232.231644,170.834686 
	C227.674255,168.566757 223.005203,166.523209 218.200775,164.071228 
	C218.650406,162.098114 219.285782,160.432266 219.960205,158.386353 
z"/>
<path fill="#C7D7EF" opacity="1.000000" stroke="none" 
	d="
M138.962769,230.578110 
	C133.683380,228.722717 128.498322,226.405930 122.991379,224.099548 
	C122.669479,219.186172 122.669479,214.262405 122.669479,208.667389 
	C128.029343,211.046768 133.124359,213.173721 138.050339,215.638474 
	C138.802444,216.014786 139.020081,217.945786 139.058289,219.171005 
	C139.171982,222.816025 139.072983,226.467667 138.962769,230.578110 
z"/>
<path fill="#000000" opacity="1.000000" stroke="none" 
	d="
M118.955727,168.412170 
	C114.509224,173.189850 110.090538,177.508469 105.339401,181.937866 
	C101.849213,172.289932 105.834099,164.347534 111.585564,156.971573 
	C113.355980,154.701111 115.688797,152.869202 117.764091,150.836472 
	C118.170578,150.998917 118.577057,151.161377 118.983543,151.323822 
	C118.983543,156.866928 118.983543,162.410019 118.955727,168.412170 
z"/>
<path fill="#000000" opacity="1.000000" stroke="none" 
	d="
M255.004028,180.591568 
	C250.234726,176.756317 245.474899,172.459396 240.405304,167.991852 
	C240.095535,162.396729 240.095535,156.972214 240.095535,151.455093 
	C248.831070,154.454834 255.040878,166.578796 255.004028,180.591568 
z"/>
<path fill="#E9F0FE" opacity="1.000000" stroke="none" 
	d="
M180.956848,152.424713 
	C186.030609,152.348663 191.058472,152.672195 196.543365,152.991516 
	C197.089523,154.895630 197.178696,156.803970 197.605469,158.944656 
	C191.142288,159.109283 184.340790,158.950897 177.540878,159.002747 
	C172.177414,159.043625 166.815903,159.343323 161.187408,159.233551 
	C161.217102,157.218140 161.512894,155.497208 161.906769,153.412750 
	C167.043121,152.699905 172.081360,152.350586 177.557053,152.027267 
	C178.076462,153.915359 178.158447,155.777451 178.240417,157.639542 
	C178.780426,157.710709 179.320419,157.781860 179.860428,157.853012 
	C180.210617,156.176773 180.560791,154.500549 180.956848,152.424713 
z"/>
<path fill="#C8D8F1" opacity="1.000000" stroke="none" 
	d="
M253.020203,201.598083 
	C251.817337,210.722656 246.657013,216.829681 239.653809,222.002930 
	C239.300598,221.903030 239.258453,221.742905 239.236938,221.580078 
	C238.071671,212.764465 238.540512,204.667252 247.653687,199.687439 
	C249.536346,198.658676 250.801483,196.499832 253.038391,194.135559 
	C253.038391,197.073608 253.038391,199.126755 253.020203,201.598083 
z"/>
<path fill="#C7D7EF" opacity="1.000000" stroke="none" 
	d="
M119.701355,219.618729 
	C110.674843,214.408554 107.611122,205.717438 107.062996,195.302292 
	C108.679611,196.537125 109.991127,198.715378 111.918129,199.793625 
	C119.823425,204.216965 121.009102,211.149231 119.701355,219.618729 
z"/>
<path fill="#E8EFFC" opacity="1.000000" stroke="none" 
	d="
M200.799438,154.192932 
	C206.088379,154.940781 211.130142,155.969437 216.583405,157.024048 
	C217.015762,158.721771 217.036606,160.393524 217.081375,162.483337 
	C216.085373,163.096527 214.971558,163.658203 214.061356,163.425003 
	C209.473892,162.249710 204.939499,160.867203 200.162033,159.257446 
	C200.142456,157.462906 200.347351,155.968323 200.799438,154.192932 
z"/>
<path fill="#D9E4F8" opacity="1.000000" stroke="none" 
	d="
M393.551941,141.040421 
	C395.533569,148.603699 393.410370,154.160507 385.544159,156.851242 
	C383.534271,157.538757 381.762939,158.923569 379.545349,160.061707 
	C378.802887,156.073059 378.397125,152.010757 377.984741,147.489807 
	C383.050781,145.050659 388.123474,143.070145 393.551941,141.040421 
z"/>
<path fill="#D9E4F8" opacity="1.000000" stroke="none" 
	d="
M219.539368,253.054382 
	C218.800003,250.954437 218.452744,248.765076 217.975449,246.604431 
	C217.593765,244.876495 217.053940,243.183472 216.289581,241.230148 
	C221.705460,238.688614 227.416061,236.391891 233.476532,234.040085 
	C235.406723,241.787933 233.165482,247.443573 225.087708,250.080475 
	C223.232697,250.686035 221.606705,251.993103 219.539368,253.054382 
z"/>
<path fill="#D8E3F7" opacity="1.000000" stroke="none" 
	d="
M216.433533,391.956360 
	C214.702362,386.769775 216.982529,383.716187 221.715561,381.603088 
	C225.473053,379.925507 228.931702,377.580170 232.536118,375.554626 
	C232.785034,375.414764 233.143204,375.469330 233.961899,375.373810 
	C233.961899,378.326782 233.961899,381.224365 233.904190,384.566467 
	C228.162857,387.309784 222.479233,389.608643 216.433533,391.956360 
z"/>
<path fill="#D6E2F6" opacity="1.000000" stroke="none" 
	d="
M216.524200,333.237274 
	C214.612549,325.733734 216.013672,319.978699 224.074615,317.153381 
	C227.275330,316.031555 230.096909,313.828003 233.141785,312.087952 
	C235.571762,321.026581 234.705383,323.318909 227.279999,327.589478 
	C223.846497,329.564240 220.350952,331.431122 216.524200,333.237274 
z"/>
<path fill="#D6E2F6" opacity="1.000000" stroke="none" 
	d="
M222.378586,267.364136 
	C220.223694,268.573242 218.377258,269.588165 215.909943,270.944397 
	C215.909943,267.170471 215.700027,264.184540 216.008820,261.253265 
	C216.140259,260.005676 217.075348,258.419281 218.128662,257.764557 
	C223.043137,254.709717 228.126465,251.926498 233.978302,248.570862 
	C233.978302,252.523529 234.155396,255.762726 233.876892,258.962280 
	C233.786270,260.003601 232.700974,261.241272 231.733337,261.870483 
	C228.806702,263.773529 225.714630,265.422180 222.378586,267.364136 
z"/>
<path fill="#D6E2F6" opacity="1.000000" stroke="none" 
	d="
M233.991425,283.622772 
	C235.160126,290.116425 232.790680,293.966797 227.003418,296.299469 
	C223.388657,297.756470 220.133759,300.106384 215.915421,302.513153 
	C215.915421,298.570190 215.790497,295.480194 215.988266,292.411011 
	C216.051132,291.435547 216.734665,290.124634 217.540359,289.633392 
	C222.738876,286.463806 228.049973,283.478821 233.767334,280.177338 
	C233.875900,281.650299 233.933502,282.431580 233.991425,283.622772 
z"/>
<path fill="#D6E2F6" opacity="1.000000" stroke="none" 
	d="
M218.112640,285.538391 
	C217.140945,283.942932 216.329422,282.190247 215.940201,280.348297 
	C215.069992,276.230255 216.742706,273.643494 220.662506,271.849304 
	C224.964188,269.880310 228.948273,267.217407 233.162003,264.804626 
	C235.476761,274.363251 234.838181,275.931793 227.061630,280.403351 
	C224.196793,282.050659 221.330246,283.694977 218.112640,285.538391 
z"/>
<path fill="#D6E2F6" opacity="1.000000" stroke="none" 
	d="
M215.901367,342.167999 
	C215.476105,338.913635 216.521332,337.139496 219.161087,335.790741 
	C223.876984,333.381165 228.390106,330.574738 233.035187,327.907135 
	C235.663147,336.230438 234.601059,339.096832 227.539246,343.173798 
	C223.986008,345.225159 220.426102,347.264984 215.901260,349.866547 
	C215.901260,346.763275 215.901260,344.687439 215.901367,342.167999 
z"/>
<path fill="#D6E2F6" opacity="1.000000" stroke="none" 
	d="
M231.145325,344.747986 
	C232.103485,344.405792 232.712143,344.257996 233.320786,344.110168 
	C233.032150,348.097992 234.266998,353.601929 232.129486,355.749786 
	C228.009857,359.889404 221.983887,362.131805 216.567535,365.265564 
	C214.636459,354.339172 214.724548,354.138794 223.059525,349.379150 
	C225.641037,347.905029 228.217209,346.421570 231.145325,344.747986 
z"/>
<path fill="#D6E2F6" opacity="1.000000" stroke="none" 
	d="
M218.657471,379.827271 
	C217.707504,380.166992 216.735458,380.656860 216.544403,380.444397 
	C214.940948,378.661377 215.850525,369.367981 217.804550,368.202728 
	C222.885254,365.172882 228.055374,362.292938 233.978378,358.901703 
	C233.978378,362.788879 234.201096,366.013855 233.861633,369.178558 
	C233.737152,370.339172 232.491058,371.689789 231.395279,372.380524 
	C227.344406,374.933990 223.142517,377.247925 218.657471,379.827271 
z"/>
<path fill="#D7E2F7" opacity="1.000000" stroke="none" 
	d="
M232.728409,296.632202 
	C235.655426,303.927521 234.462112,307.610504 228.239380,311.230072 
	C224.417023,313.453461 220.566727,315.628784 215.915344,318.291412 
	C215.915344,314.457947 215.649002,311.372345 216.037674,308.371521 
	C216.209213,307.047058 217.454849,305.487488 218.652863,304.736877 
	C223.131165,301.930969 227.791443,299.415558 232.728409,296.632202 
z"/>
<path fill="#D6E2F6" opacity="1.000000" stroke="none" 
	d="
M383.571167,224.608643 
	C387.005188,222.621414 390.130859,220.835693 394.097198,218.569733 
	C394.097198,222.530716 394.186707,225.737579 394.036560,228.933151 
	C393.997223,229.770599 393.424866,230.924469 392.739075,231.335846 
	C387.409515,234.532867 381.992249,237.583679 376.411102,240.789413 
	C375.356079,233.550903 374.949432,227.205215 383.571167,224.608643 
z"/>
<path fill="#D6E2F6" opacity="1.000000" stroke="none" 
	d="
M379.872681,175.838577 
	C378.551636,176.488495 377.550812,176.967804 376.016235,177.702759 
	C376.016235,174.221802 375.872955,171.283966 376.087433,168.372498 
	C376.172089,167.223328 376.748138,165.637939 377.623230,165.097122 
	C382.773529,161.914230 388.078125,158.981003 394.101593,155.520889 
	C394.101593,159.430908 394.372437,162.535294 393.975403,165.551773 
	C393.803772,166.855667 392.484467,168.332474 391.285004,169.116287 
	C387.693970,171.462936 383.904755,173.506256 379.872681,175.838577 
z"/>
<path fill="#D6E2F6" opacity="1.000000" stroke="none" 
	d="
M389.252625,186.159973 
	C384.941772,188.627304 380.960266,190.906448 376.884064,193.239822 
	C374.525909,184.006439 375.255768,182.112503 382.587189,177.874603 
	C386.119446,175.832779 389.669464,173.821716 393.334808,171.726166 
	C395.324554,180.948166 394.774597,182.903229 389.252625,186.159973 
z"/>
<path fill="#D6E2F6" opacity="1.000000" stroke="none" 
	d="
M388.312073,281.263306 
	C384.281921,283.575714 380.575378,285.698029 376.025421,288.303314 
	C376.025421,284.390778 375.938660,281.189087 376.083679,277.997925 
	C376.122101,277.152435 376.743500,276.225616 377.337250,275.545746 
	C377.855835,274.951904 378.701904,274.635132 379.420624,274.226471 
	C384.113800,271.557922 388.811737,268.897675 394.017731,265.945770 
	C393.681946,272.060211 396.621185,278.505493 388.312073,281.263306 
z"/>
<path fill="#D7E2F7" opacity="1.000000" stroke="none" 
	d="
M393.559662,214.927551 
	C387.839630,218.417557 382.404175,221.607986 376.898926,224.839371 
	C374.415588,215.802658 375.292053,213.569412 382.895538,209.189285 
	C386.332214,207.209534 389.794678,205.274658 393.844208,202.980148 
	C393.844208,207.229904 393.844208,210.928955 393.559662,214.927551 
z"/>
<path fill="#D6E2F6" opacity="1.000000" stroke="none" 
	d="
M382.622131,256.654663 
	C386.343689,254.528885 389.752655,252.602417 393.272095,250.613510 
	C395.529877,260.166595 394.949188,261.652771 387.374207,266.058014 
	C383.852814,268.105927 380.286133,270.076080 376.586426,272.168304 
	C374.899323,261.101501 374.938934,261.000732 382.622131,256.654663 
z"/>
<path fill="#D6E2F6" opacity="1.000000" stroke="none" 
	d="
M376.012665,200.405396 
	C376.649536,198.756683 376.971222,197.038956 377.975006,196.410294 
	C382.884033,193.335800 387.974945,190.551651 393.059570,187.631531 
	C395.774872,195.643677 394.667816,198.787094 387.897064,202.723816 
	C384.203949,204.871109 380.467560,206.944000 376.011902,209.469147 
	C376.011902,206.034409 376.011902,203.436401 376.012665,200.405396 
z"/>
<path fill="#D6E2F6" opacity="1.000000" stroke="none" 
	d="
M382.867249,252.932831 
	C380.689117,254.139023 378.844025,255.176407 376.926483,256.254517 
	C374.461823,247.344193 375.314453,245.119370 382.578918,240.926865 
	C385.872253,239.026215 389.177216,237.145508 392.494171,235.286575 
	C392.734619,235.151825 393.116180,235.268921 394.101868,235.268921 
	C394.101868,238.269592 394.317352,241.345856 393.994995,244.364685 
	C393.867432,245.559387 392.774506,246.962387 391.720001,247.685913 
	C388.999420,249.552567 386.055176,251.093170 382.867249,252.932831 
z"/>
<path fill="#FEFEFF" opacity="1.000000" stroke="none" 
	d="
M320.944122,104.049164 
	C319.467163,98.910934 321.911682,94.177345 327.886353,91.673805 
	C337.202393,87.770134 346.512238,87.812027 355.514008,92.787689 
	C360.385529,95.480408 361.631805,98.629074 360.026550,104.984245 
	C352.303986,112.960609 343.239624,114.067825 333.593597,112.233505 
	C328.396301,111.245171 323.442627,109.424644 320.944122,104.049164 
z"/>
<path fill="#BBCFEF" opacity="1.000000" stroke="none" 
	d="
M320.682800,104.303574 
	C323.442627,109.424644 328.396301,111.245171 333.593597,112.233505 
	C343.239624,114.067825 352.303986,112.960609 359.898743,105.352264 
	C361.572418,109.804680 359.558197,114.154701 354.180969,116.307587 
	C344.549072,120.163933 334.907501,120.511604 325.521027,115.256798 
	C321.258942,112.870750 319.518524,109.364967 320.682800,104.303574 
z"/>
<path fill="#FEFEFF" opacity="1.000000" stroke="none" 
	d="
M160.953232,194.039291 
	C159.326767,188.759323 160.794678,184.648895 166.011124,182.117386 
	C175.526169,177.499832 185.321869,177.482025 194.837250,182.062515 
	C199.139297,184.133423 201.671768,187.834793 200.671051,193.616791 
	C189.235046,205.274338 170.096573,205.192429 160.953232,194.039291 
z"/>
<path fill="#BCD0EF" opacity="1.000000" stroke="none" 
	d="
M160.688736,194.299042 
	C170.096573,205.192429 189.235046,205.274338 200.672104,194.023590 
	C201.900436,199.625595 199.082565,203.548813 194.207703,205.798157 
	C184.106079,210.459152 174.035385,210.236755 164.467148,204.201096 
	C161.019363,202.026215 159.056473,198.909561 160.688736,194.299042 
z"/>
</svg>